<svg id="Layer_1" data-name="Layer 1" xmlns="http://www.w3.org/2000/svg" viewBox="0 0 111 111"><defs><style>.cls-1{fill:#fff;}.cls-2{fill:#d6d6d6;}.cls-3{fill:#005a9f;}</style></defs><title>about-icon</title><path class="cls-1" d="M55.5,110.5a55,55,0,1,1,55-55A55.06,55.06,0,0,1,55.5,110.5Z"/><path class="cls-2" d="M55.5,1A54.5,54.5,0,1,1,1,55.5,54.56,54.56,0,0,1,55.5,1m0-1A55.5,55.5,0,1,0,111,55.5,55.5,55.5,0,0,0,55.5,0Z"/><path class="cls-3" d="M67.26,70.85a3.42,3.42,0,0,1-1,1.35c-.32.32-.62.65-.93,1a43.9,43.9,0,0,1-4.5,4.21,21.36,21.36,0,0,1-5.07,3.33c-6,2.52-11.27.31-10.58-5.67s5.84-19,6.53-21.43-.93-3-2.59-1.94A15.83,15.83,0,0,0,47,53.39c-.54.49-1.17,1.37-2,1.23A1.23,1.23,0,0,1,44,53.17a3.08,3.08,0,0,1,1.05-1.57,21,21,0,0,1,8.4-5.48c4.8-1.48,13,0,10.07,9.49C61.42,62.39,59.91,67.07,59,70.54s.44,4.11,2.32,2.67a29.62,29.62,0,0,0,2.26-1.95c.33-.3.66-.61,1-.94a2.8,2.8,0,0,1,.95-.8,1.48,1.48,0,0,1,1.44.27A1,1,0,0,1,67.26,70.85Z"/><path class="cls-3" d="M61.56,43.88A6.82,6.82,0,1,1,68,36.69,6.82,6.82,0,0,1,61.56,43.88Z"/></svg>