<svg id="Layer_1" data-name="Layer 1" xmlns="http://www.w3.org/2000/svg" viewBox="0 0 111 111"><defs><style>.cls-1{fill:#fff;}.cls-2{fill:#d6d6d6;}.cls-3{fill:#005a9f;}</style></defs><title>ask-icon</title><path class="cls-1" d="M55.5,110.5a55,55,0,1,1,55-55A55.06,55.06,0,0,1,55.5,110.5Z"/><path class="cls-2" d="M55.5,1A54.5,54.5,0,1,1,1,55.5,54.56,54.56,0,0,1,55.5,1m0-1A55.5,55.5,0,1,0,111,55.5,55.5,55.5,0,0,0,55.5,0Z"/><path class="cls-3" d="M80.42,57.34a14.51,14.51,0,0,0,4.4-10.2C84.82,38.24,76,31,65.27,31,56.45,31,49,35.85,46.56,42.49a25.6,25.6,0,0,1,2.66.22c2.31-5.32,8.62-9.16,16-9.16,9.37,0,17,6.1,17,13.6a12.11,12.11,0,0,1-4,8.77l-.42.4,0,.58a23.63,23.63,0,0,0,1.34,6.76,15.87,15.87,0,0,1-6.76-3.49l-.53-.5-.7.21a20.74,20.74,0,0,1-3.78.74s0,.08,0,.12a15.51,15.51,0,0,1-.2,2.46,23.26,23.26,0,0,0,4-.69,19.76,19.76,0,0,0,8.15,3.83,2.12,2.12,0,0,0,2.47-2.86A21.37,21.37,0,0,1,80.42,57.34Z"/><path class="cls-3" d="M31.13,80a2.13,2.13,0,0,1-2-2.92,21.38,21.38,0,0,0,1.42-6.14,14.51,14.51,0,0,1-4.4-10.2c0-8.9,8.77-16.15,19.55-16.15s19.55,7.24,19.55,16.15S56.5,76.89,45.73,76.89a23.19,23.19,0,0,1-5.95-.78,19.76,19.76,0,0,1-8.15,3.83A2.13,2.13,0,0,1,31.13,80Zm14.6-32.85c-9.37,0-17,6.1-17,13.6a12.11,12.11,0,0,0,4,8.77l.42.4,0,.58a23.63,23.63,0,0,1-1.34,6.76,15.87,15.87,0,0,0,6.76-3.49l.53-.5.7.21a20.67,20.67,0,0,0,5.91.86c9.37,0,17-6.1,17-13.6S55.1,47.15,45.73,47.15Z"/><circle class="cls-3" cx="38.93" cy="65.84" r="2.12"/><circle class="cls-3" cx="46.22" cy="65.84" r="2.12"/><circle class="cls-3" cx="53.52" cy="65.84" r="2.12"/></svg>