<svg id="Layer_1" data-name="Layer 1" xmlns="http://www.w3.org/2000/svg" xmlns:xlink="http://www.w3.org/1999/xlink" viewBox="0 0 111 111"><defs><style>.cls-1{fill:none;}.cls-2{fill:#fff;}.cls-3{fill:#d6d6d6;}.cls-4{clip-path:url(#clip-path);}.cls-5{fill:#005a9f;}</style><clipPath id="clip-path"><path class="cls-1" d="M67.43,54.49V35.27a11.93,11.93,0,0,0-23.87,0V54.49Z"/></clipPath></defs><title>news-icon</title><path class="cls-2" d="M55.5,110.5a55,55,0,1,1,55-55A55.06,55.06,0,0,1,55.5,110.5Z"/><path class="cls-3" d="M55.5,1A54.5,54.5,0,1,1,1,55.5,54.56,54.56,0,0,1,55.5,1m0-1A55.5,55.5,0,1,0,111,55.5,55.5,55.5,0,0,0,55.5,0Z"/><g class="cls-4"><rect class="cls-5" x="35.81" y="21.93" width="39.39" height="0.85" transform="translate(0.45 45.79) rotate(-45)"/><rect class="cls-5" x="35.81" y="27.25" width="39.39" height="0.85" transform="translate(-3.32 47.35) rotate(-45)"/><rect class="cls-5" x="35.81" y="32.58" width="39.39" height="0.85" transform="translate(-7.08 48.91) rotate(-45)"/><rect class="cls-5" x="35.81" y="37.9" width="39.39" height="0.85" transform="translate(-10.84 50.47) rotate(-45)"/><rect class="cls-5" x="35.81" y="43.22" width="39.39" height="0.85" transform="translate(-14.61 52.03) rotate(-45)"/><rect class="cls-5" x="35.81" y="48.55" width="39.39" height="0.85" transform="translate(-18.37 53.59) rotate(-45)"/><rect class="cls-5" x="35.81" y="53.87" width="39.39" height="0.85" transform="translate(-22.14 55.15) rotate(-45)"/><rect class="cls-5" x="35.81" y="59.2" width="39.39" height="0.85" transform="translate(-25.9 56.71) rotate(-45)"/><rect class="cls-5" x="55.08" y="2.66" width="0.85" height="39.39" transform="translate(0.45 45.79) rotate(-45)"/><rect class="cls-5" x="55.08" y="7.98" width="0.85" height="39.39" transform="translate(-3.32 47.35) rotate(-45)"/><rect class="cls-5" x="55.08" y="13.31" width="0.85" height="39.39" transform="translate(-7.08 48.91) rotate(-45)"/><rect class="cls-5" x="55.08" y="18.63" width="0.85" height="39.39" transform="translate(-10.84 50.47) rotate(-45)"/><rect class="cls-5" x="55.08" y="23.95" width="0.85" height="39.39" transform="translate(-14.61 52.03) rotate(-45)"/><rect class="cls-5" x="55.08" y="29.28" width="0.85" height="39.39" transform="translate(-18.37 53.59) rotate(-45)"/><rect class="cls-5" x="55.08" y="34.6" width="0.85" height="39.39" transform="translate(-22.14 55.15) rotate(-45)"/><rect class="cls-5" x="55.08" y="39.93" width="0.85" height="39.39" transform="translate(-25.9 56.71) rotate(-45)"/></g><rect class="cls-5" x="44.61" y="54.49" width="21.77" height="0.85"/><path class="cls-5" d="M69.79,86H56.57V77.89a17,17,0,0,0,16-17,1.07,1.07,0,1,0-2.13,0,14.94,14.94,0,0,1-29.88,0,1.07,1.07,0,1,0-2.13,0,17,17,0,0,0,16,17V86H41.21a1.07,1.07,0,0,0,0,2.13H69.79a1.07,1.07,0,0,0,0-2.13ZM40.57,87h0a.64.64,0,0,0,.05.25A.64.64,0,0,1,40.57,87Zm29.82.25a.64.64,0,0,0,.05-.25h0A.64.64,0,0,1,70.38,87.27Z"/><path class="cls-5" d="M55.5,22.91A12.37,12.37,0,0,0,43.14,35.27V60.85a12.36,12.36,0,1,0,24.71,0V35.27A12.37,12.37,0,0,0,55.5,22.91Zm0,48.16A10.24,10.24,0,0,1,45.28,60.85V35.27a10.22,10.22,0,0,1,20.45,0V60.85A10.24,10.24,0,0,1,55.5,71.07Z"/></svg>