<svg id="Layer_1" data-name="Layer 1" xmlns="http://www.w3.org/2000/svg" viewBox="0 0 111 111"><defs><style>.cls-1{fill:#fff;}.cls-2{fill:#d6d6d6;}.cls-3{fill:#005a9f;}</style></defs><title>press-icon</title><path class="cls-1" d="M55.5,110.5a55,55,0,1,1,55-55A55.06,55.06,0,0,1,55.5,110.5Z"/><path class="cls-2" d="M55.5,1A54.5,54.5,0,1,1,1,55.5,54.56,54.56,0,0,1,55.5,1m0-1A55.5,55.5,0,1,0,111,55.5,55.5,55.5,0,0,0,55.5,0Z"/><path class="cls-3" d="M27.23,56.14a21.74,21.74,0,0,1,1.61-7.71A32.14,32.14,0,0,1,34,40l2.89,2.09a13.94,13.94,0,0,0-1.28,2.09,24.14,24.14,0,0,0-1.37,2.89,20.71,20.71,0,0,0-1,3.37,12.85,12.85,0,0,0-.4,3.37c.32-.08.64-.16.88-.24h.72a5.4,5.4,0,0,1,1.93.32,3.94,3.94,0,0,1,1.61.88A3.62,3.62,0,0,1,39,56.3a6.25,6.25,0,0,1,.4,2.25,6.89,6.89,0,0,1-.4,2.17,5.1,5.1,0,0,1-1.12,1.77,5.72,5.72,0,0,1-1.77,1.2,5.88,5.88,0,0,1-2.41.24,6.41,6.41,0,0,1-2.89-.56,5.15,5.15,0,0,1-2-1.69,6.54,6.54,0,0,1-1.2-2.49A9.66,9.66,0,0,1,27.23,56.14Zm14.78,0a21.74,21.74,0,0,1,1.61-7.71A32.14,32.14,0,0,1,48.75,40l2.89,2.09a13.94,13.94,0,0,0-1.28,2.09A24.14,24.14,0,0,0,49,47.07a20.71,20.71,0,0,0-1,3.37,12.85,12.85,0,0,0-.4,3.37c.32-.08.64-.16.88-.24h.72a5.4,5.4,0,0,1,1.93.32,3.94,3.94,0,0,1,1.61.88,3.62,3.62,0,0,1,1.12,1.53,6.25,6.25,0,0,1,.4,2.25,6.89,6.89,0,0,1-.4,2.17,5.1,5.1,0,0,1-1.12,1.77,5.72,5.72,0,0,1-1.77,1.2,5.64,5.64,0,0,1-2.33.24,6.41,6.41,0,0,1-2.89-.56,5.15,5.15,0,0,1-2-1.69,6.54,6.54,0,0,1-1.2-2.49A9.71,9.71,0,0,1,42,56.14Z"/><path class="cls-3" d="M83.77,54.86a21.74,21.74,0,0,1-1.61,7.71A34.46,34.46,0,0,1,77,71l-2.89-2.09a13.94,13.94,0,0,0,1.28-2.09,24.14,24.14,0,0,0,1.37-2.89,20.71,20.71,0,0,0,1-3.37,12.85,12.85,0,0,0,.4-3.37c-.32.08-.64.16-.88.24h-.72a5.4,5.4,0,0,1-1.93-.32,3.94,3.94,0,0,1-1.61-.88A3.62,3.62,0,0,1,72,54.7a6.25,6.25,0,0,1-.4-2.25,6.89,6.89,0,0,1,.4-2.17,5.1,5.1,0,0,1,1.12-1.77,5.72,5.72,0,0,1,1.77-1.2,5.13,5.13,0,0,1,2.25-.48,6.41,6.41,0,0,1,2.89.56,5.15,5.15,0,0,1,2,1.69,6.54,6.54,0,0,1,1.2,2.49A8.36,8.36,0,0,1,83.77,54.86ZM69,54.86a21.74,21.74,0,0,1-1.61,7.71A34.46,34.46,0,0,1,62.25,71l-2.89-2.09a13.94,13.94,0,0,0,1.28-2.09A24.14,24.14,0,0,0,62,63.93a20.71,20.71,0,0,0,1-3.37,12.85,12.85,0,0,0,.4-3.37c-.32.08-.64.16-.88.24h-.72a5.4,5.4,0,0,1-1.93-.32,3.94,3.94,0,0,1-1.61-.88,3.62,3.62,0,0,1-1.12-1.53,6.25,6.25,0,0,1-.4-2.25,6.89,6.89,0,0,1,.4-2.17,5.1,5.1,0,0,1,1.12-1.77,5.72,5.72,0,0,1,1.77-1.2,5.13,5.13,0,0,1,2.25-.48,6.41,6.41,0,0,1,2.89.56,5.15,5.15,0,0,1,2,1.69,6.54,6.54,0,0,1,1.2,2.49A10.13,10.13,0,0,1,69,54.86Z"/></svg>