<svg id="Layer_1" data-name="Layer 1" xmlns="http://www.w3.org/2000/svg" viewBox="0 0 1920 1080"><defs><style>.cls-1{fill:#005a9f;}</style></defs><title>Artboard 1</title><path class="cls-1" d="M980,739.22c-19.71-36.6-72.59,12.62-94.21,18-3.48-18.93,22.11-92.21-11.26-93.47-16.54-.62-32.23,25.6-37.8,37.68-8.45,18.34-2.63,39.64-10.2,56.95-15.61-7-19.15-48.55-44-29.54-13.71,10.5-20.73,57.72-48.19,44.42C713.28,763,724,711.4,695.89,710.38c-22-.79-22.74,37.74-40,45.53-6.76-15.8,8.95-65.77-21.45-63.93-26,1.57-9.57,37.73-21.41,50.38-16.33-35.67,19.76-90.62-10.21-123.39-30.89-33.78-77.55,62.1-93.24,82.68-1-46,7.29-91.18,10.46-137,2.94-42.42,1.19-85,1.48-127.53.1-15.58,5.3-45.39-13.82-52.92-17.71-7-22.48,12.38-21.52,25.56,1.7,23.22,7,45.11,6.83,68.89-.12,22.93.28,46-1.17,68.89-3,47-9.54,93.63-12.41,140.6-2.6,42.57,1.72,84.78-5,127.17-5,31.34-16.78,70.66-56.59,81.11C306.71,925.59,225.3,828.49,187.65,757.65,146.92,681,142.84,592,171.34,511.13c53.59-152,215-274.6,370-306.42,38.18-7.84,91.17-17,128-.41,49.62,22.39,20.52,67.29,3.22,102.51-20.9,42.52-44.81,83.38-68.17,124.57-4.58,8.08-31.62,65.26-1.93,44.19C617.4,465,626,441.78,635.12,426.46c12.66-21.18,25.75-42.11,38.72-63.1,22.18-35.93,49-69.54,49-113.56,0-101.19-140-94-207.73-72.38C365,225.39,211.47,339.67,149,488.17c-32.67,77.73-35.06,168.13-4.55,247s150.36,235,298.62,179.38c56.77-21.29,55.24-96.09,64-102.07,5.27-3.61,18.92,1.61,25.14,1.17,9.25-.65,17.11-4,24.91-8.8,14.41-8.84,23.34-26.31,40.06-16.48,11.36,6.69,15.68,11.27,28.85,12.7,16.87,1.83,34.49,1.68,49.15-7.88,4.54-3,13.06-16.24,17.23-16.14,4.72.12,10.24,10.67,13.14,13.77,13.74,14.72,30.9,24.7,51.83,19.76,17.58-4.15,26.07-20.94,44.1-22,23.4-1.35,46.84,6.56,70.08,6.92a77,77,0,0,0,22-2.75c7.6-2.15,20.14-13.21,26.84-13.82,14-1.27,4.72,13.42,16.52,20.88,10.92,6.9,29.77-7.64,36.55-15.88C982.92,772.52,987.34,752.86,980,739.22ZM577.81,689.82c-1.06,23.09.43,46.36-13.11,66.22-7.87,11.54-30.13,40.32-39.69,17.66-8.77-20.78,8.87-51.55,19.08-68.69,6.06-10.17,13.62-24.43,22.57-32.54C581.27,659.23,578.43,676.34,577.81,689.82Z"/><path class="cls-1" d="M1798.22,697.72c-9.79-61.25-19.6-122.64-37.33-182.19-12.14-40.77-20.55-81.49-62.54-98-3.87,13.34-6.53,20.15-.49,33.79,4.94,11.15,13.25,18.82,19.64,28.81,19.1,29.9,22.23,74.5,28.44,109,4.87,27,9.92,54.09,14.14,81.22,3.8,24.46,8.76,56.55-14.32,73-19.57,14-56.21,21.92-61.91-9.53-3.88-21.45,36.93-65.54,16.6-82.44-23.76-19.75-43.5,41.63-55.41,52.3-21.07,18.85-66.77,47.48-90.81,26.19,12.22-5.91,17.15-10.26,25-17.27a88.47,88.47,0,0,0,24.32-36c11.1-31-15-66.15-43-52.75-22.15,10.61-30.66,17-44.65,42.28-4.72,8.54-7.1,31.14-4.63,47.21.42,2.75-28.95,13.07-45.73,15.77-7.25,1.16-27.47,3.16-25.62,0,24.84-42.58,27.64-64,29.28-77,4-31.24-12.71-60.05-47.19-43.27-25.57,12.44-41.44,37.81-47,65.09-3.89,19-3.72,37.52,1.7,55.72,1.35,4.53,4.9,12.91,4.9,12.91a78.56,78.56,0,0,1-8.67,5.91c-6.5,3.75-19.34,10.2-26.36,12.68C1288.23,781.76,1237,742.65,1238,681.81c1.17-72.42,47.83-142.19,81-203.4,16.9-31.22,33.78-62.5,48.43-94.86,14.19-31.37,34.46-67.85,28.75-103.54-4.27-26.69-23.69-58.58-53.65-58.81s-59.25,27.87-74.61,51.32c-36.73,56.06-42.74,128.37-73.8,187.49-16.4,31.23-10.51,70.11-15.61,104.8-5.28,35.9-14.44,71.12-19.54,107-5,35.3-3.42,69.31,2.23,104.41,2.16,13.38,8.22,86.62,38.75,61.82,10.51-8.53,5-36.86,5-48.33,0-19.66-.06-39.33,0-59,0-38.56.22-77.06,3.34-115.52a1191.41,1191.41,0,0,1,33.86-201.76c8.75-34.07,18.66-68.24,35.49-99.33,11.12-20.55,38.2-65.28,66.16-60.83,66,10.49-27.79,159.93-41.4,182.37-37.38,61.61-78.37,133.3-92.7,204.78-14,69.79,19,151,97.73,159.83,42.87,4.79,104.55-38,104.55-38a254.36,254.36,0,0,0,55.19-4.34c17.41-3.28,53.61-14.19,53.61-14.19s17.38,25.29,34.4,26.06c13.89.63,31.49-1.05,44.44-5.17,8.85-2.81,49.83-23.61,50-22.81,2.75,14.63,11.63,25.68,15.5,30.24C1712.36,827.68,1808.63,762.82,1798.22,697.72Zm-226.64-24.95c-4.34,12.62-14.19,25.62-28.78,31.54C1534.08,688,1557.38,660.94,1571.58,672.77Zm-130.69-13.4c-4.05,16.68-15.06,40.39-22.87,51.45-2.37,3.35-10.46,13.08-13,10.64-4.42-4.21-4.74-24-3.94-32.52,1.42-15.32,9.87-32.39,21.49-42.47C1436.53,634.36,1444.24,645.57,1440.89,659.36Z"/></svg>